<?xml version="1.0" encoding="UTF-8"?>
<svg width="398px" height="360px" viewBox="0 0 398 360" version="1.1" xmlns="http://www.w3.org/2000/svg" xmlns:xlink="http://www.w3.org/1999/xlink">
    <!-- Generator: Sketch 52.5 (67469) - http://www.bohemiancoding.com/sketch -->
    <title>kleros-symbol-grey-flat</title>
    <desc>Created with Sketch.</desc>
    <g id="kleros-symbol-grey-flat" stroke="none" stroke-width="1" fill="none" fill-rule="evenodd">
        <path d="M126.251953,25.7250426 L299.425781,33.4751596 L369.537109,189.449667 L270.623047,332 L96.5078125,320.835869 L25.1263499,151.838464 L126.251953,25.7250426 Z M253.211448,115.632496 L127.706226,170.535418 L235.00537,253.600691 L253.211448,115.632496 Z M238.680959,88.1211596 L138.381643,44.8809716 L117.312542,135.795429 L238.680959,88.1211596 Z M213.258586,274.500642 L104.252724,196.566188 L106.889489,302.172011 L213.258586,274.500642 Z M352.126028,189.105652 L277.844097,113.634819 L258.238053,258.761993 L352.126028,189.105652 Z M238.815843,291.476 L146.883687,315.534131 L254.995398,322.465582 L238.815843,291.476 Z M337.60968,223.347039 L257.136138,283.369894 L273.12642,314.658855 L337.60968,223.347039 Z M299.545194,55.267805 L283.914966,87.3950284 L342.093486,146.607926 L299.545194,55.267805 Z M280.070771,39.8938546 L177.908097,35.741734 L262.180147,72.6481418 L280.070771,39.8938546 Z M111.333047,54.750695 L39.7749028,145.222071 L87.6173918,155.368312 L111.333047,54.750695 Z M84.7326144,173.115525 L36.6595172,162.924649 L86.8200533,281.243755 L84.7326144,173.115525 Z" id="Combined-Shape" fill="#747474"></path>
    </g>
</svg>